<?xml version="1.0" encoding="utf-8"?>
<svg width="454px" height="478px" viewBox="0 0 454 478" version="1.1" xmlns:xlink="http://www.w3.org/1999/xlink" xmlns="http://www.w3.org/2000/svg">
  <desc>Created with Lunacy</desc>
  <defs>
    <filter filterUnits="userSpaceOnUse" color-interpolation-filters="sRGB" id="filter_1">
      <feFlood flood-opacity="0" result="BackgroundImageFix" />
      <feColorMatrix in="SourceAlpha" type="matrix" values="0 0 0 0 0 0 0 0 0 0 0 0 0 0 0 0 0 0 127 0" />
      <feOffset dx="0" dy="2" />
      <feGaussianBlur stdDeviation="2" />
      <feColorMatrix type="matrix" values="0 0 0 0 0.3921569 0 0 0 0 0.3921569 0 0 0 0 0.3921569 0 0 0 0.4980392 0" />
      <feBlend mode="normal" in2="BackgroundImageFix" result="effect0_dropShadow" />
      <feBlend mode="normal" in="SourceGraphic" in2="effect0_dropShadow" result="shape" />
      <feColorMatrix in="SourceAlpha" type="matrix" values="0 0 0 0 0 0 0 0 0 0 0 0 0 0 0 0 0 0 127 0" result="hardAlpha" />
      <feOffset dx="0" dy="1" />
      <feGaussianBlur stdDeviation="1.5" />
      <feComposite in2="hardAlpha" operator="arithmetic" k2="-1" k3="1" />
      <feColorMatrix type="matrix" values="0 0 0 0 0.3921569 0 0 0 0 0.3921569 0 0 0 0 0.3921569 0 0 0 0.4980392 0" />
      <feBlend mode="normal" in2="shape" result="effect1_innerShadow" />
    </filter>
  </defs>
  <g id="Group-2" transform="translate(1.5 1.5)">
    <g id="Group" transform="matrix(0.9659258 0.258819 -0.258819 0.9659258 102.2335 0)">
      <g filter="url(#filter_1)">
        <path d="M0 0L345 0L345 265L0 265L0 0Z" transform="translate(8 130.0001)" id="Rectangle-4" fill="#FCF6CB" stroke="none" />
      </g>
      <g filter="url(#filter_1)">
        <path d="M0 0L361 0L361 131L0 131L0 0Z" transform="translate(-6.103516E-05 0)" id="Rectangle-2" fill="#FDF7D3" stroke="none" />
      </g>
      <g filter="url(#filter_1)">
        <path d="M0 0L347 0L347 118L0 118L0 0Z" transform="translate(6.999817 5.674957)" id="Rectangle" fill="#FAE065" stroke="#000000" stroke-width="3" />
      </g>
      <g filter="url(#filter_1)">
        <path d="M0 0L333 0L333 265L0 265L0 0Z" transform="translate(13.99982 124)" id="Rectangle-3" fill="#FFFFF2" stroke="#000000" stroke-width="3" />
      </g>
      <g filter="url(#filter_1)" transform="translate(54 142)">
        <g id="Oto">
          <path d="M7.488 62.572Q7.488 40.828 22.176 26.284Q36.864 11.74 59.04 11.74Q79.776 11.74 93.672 26.212Q107.568 40.684 107.568 61.996Q107.568 84.46 93.528 98.86Q79.488 113.26 57.6 113.26Q35.856 113.26 21.672 98.788Q7.488 84.316 7.488 62.572ZM92.448 61.996Q92.448 42.124 83.736 30.748Q75.024 19.372 59.04 19.372Q42.048 19.372 32.4 30.892Q22.752 42.412 22.752 63.292Q22.752 83.164 32.4 94.684Q42.048 106.204 57.744 106.204Q73.296 106.204 82.872 93.964Q92.448 81.724 92.448 61.996ZM134.86 19.804L139.756 19.804L139.756 43.708L160.636 43.708L160.636 50.764L139.756 50.764L139.756 93.1Q139.756 100.876 142.42 103.468Q145.084 106.06 149.116 106.06Q155.884 106.06 163.804 100.156L163.804 106.924Q154.588 113.26 145.084 113.26Q139.9 113.26 135.436 110.74Q130.972 108.22 129.532 104.908Q128.092 101.596 128.092 93.964L128.092 50.764L115.708 50.764L115.708 44.86Q124.492 42.7 128.74 37.3Q132.988 31.9 134.86 19.804ZM177.128 51.916Q167.48 61.852 167.48 77.692Q167.48 93.388 176.696 103.324Q185.912 113.26 201.608 113.26Q217.592 113.26 227.096 103.468Q236.6 93.676 236.6 77.548Q236.6 61.564 227.24 51.772Q217.88 41.98 202.472 41.98Q186.776 41.98 177.128 51.916ZM217.52 56.452Q223.064 64.156 223.064 77.404Q223.064 90.94 217.232 98.932Q211.4 106.924 201.896 106.924Q192.104 106.924 186.704 99.364Q181.304 91.804 181.304 78.124Q181.304 64.876 186.992 56.812Q192.68 48.748 201.896 48.748Q211.976 48.748 217.52 56.452Z" />
        </g>
      </g>
      <g filter="url(#filter_1)" transform="translate(8.000061 222)">
        <g id="Mad">
          <path d="M272.27 38.332L272.27 44.236L284.078 44.236L284.078 75.34Q275.15 65.98 261.326 65.98Q247.646 65.98 238.358 76.564Q229.07 87.148 229.07 102.412Q229.07 116.956 237.566 127.108Q246.062 137.26 258.59 137.26Q271.55 137.26 284.078 125.452L284.078 136.684L308.558 135.532L308.558 129.628L305.534 129.628Q301.214 129.628 299.414 128.908Q297.614 128.188 296.966 125.74Q296.318 123.292 296.318 117.676L296.318 32.428L290.99 32.428Q281.198 37.756 272.27 38.332ZM28.278 37.468L59.238 37.468L88.182 115.084L116.406 37.468L146.358 37.468L146.358 43.372L143.91 43.372Q138.582 43.372 136.422 45.1Q134.262 46.828 134.262 53.308L134.262 117.964Q134.262 125.452 135.846 127.54Q137.43 129.628 143.91 129.628L146.358 129.628L146.358 135.532L108.918 135.532L108.918 129.628L111.51 129.628Q117.27 129.628 119.214 127.828Q121.158 126.028 121.158 119.98L121.158 47.836L89.19 135.532L82.134 135.532L49.878 48.988L49.878 118.54Q49.878 125.452 52.326 127.54Q54.774 129.628 60.534 129.628L62.838 129.628L62.838 135.532L28.278 135.532L28.278 129.628L30.294 129.628Q37.35 129.628 39.366 127.252Q41.382 124.876 41.382 117.964L41.382 53.884Q41.382 46.396 39.366 44.884Q37.35 43.372 31.59 43.372L28.278 43.372L28.278 37.468ZM202.618 95.5L202.618 87.148Q202.618 72.604 185.914 72.604Q178.57 72.604 175.042 75.556Q171.514 78.508 170.074 85.996Q169.498 89.02 167.77 90.676Q166.042 92.332 163.45 92.332Q160.714 92.332 158.986 90.316Q157.258 88.3 157.258 85.132Q157.258 77.788 165.61 71.884Q173.962 65.98 187.93 65.98Q202.042 65.98 208.45 71.74Q214.858 77.5 214.858 89.884L214.858 117.676Q214.858 124.012 215.506 126.244Q216.154 128.476 218.098 129.844Q220.042 131.212 222.49 131.212Q225.082 131.212 229.69 129.628L229.69 135.82Q224.362 137.26 219.466 137.26Q205.498 137.26 203.338 125.452Q195.85 131.5 189.01 134.38Q182.17 137.26 174.25 137.26Q164.89 137.26 158.698 132.148Q152.506 127.036 152.506 119.836Q152.506 110.188 162.226 104.5Q171.946 98.812 202.618 95.5ZM284.078 91.9L284.078 118.54Q278.606 123.436 272.63 126.244Q266.654 129.052 262.046 129.052Q254.126 129.052 248.366 121.492Q242.606 113.932 242.606 101.836Q242.606 89.164 248.942 81.388Q255.278 73.612 264.926 73.612Q271.55 73.612 277.814 78.076Q284.078 82.54 284.078 91.9ZM202.618 101.692Q177.274 105.004 171.298 108.892Q165.322 112.78 165.322 118.54Q165.322 123.004 168.85 126.1Q172.378 129.196 177.562 129.196Q187.786 129.196 202.618 118.684L202.618 101.692Z" />
        </g>
      </g>
    </g>
  </g>
</svg>