<?xml version="1.0" encoding="utf-8"?>
<svg width="348px" height="326px" viewBox="0 0 348 326" version="1.1" xmlns:xlink="http://www.w3.org/1999/xlink" xmlns="http://www.w3.org/2000/svg">
  <desc>Created with Lunacy</desc>
  <defs>
    <path d="M7.999 0L92.001 0Q92.1974 0 92.3935 0.00963514Q92.5896 0.0192703 92.785 0.0385174Q92.9805 0.0577644 93.1747 0.0865771Q93.3689 0.11539 93.5615 0.153699Q93.7541 0.192007 93.9446 0.23972Q94.1351 0.287433 94.323 0.344434Q94.5109 0.401436 94.6958 0.467589Q94.8807 0.533742 95.0621 0.608888Q95.2435 0.684033 95.421 0.76799Q95.5985 0.851946 95.7717 0.944512Q95.9449 1.03708 96.1133 1.13803Q96.2817 1.23898 96.445 1.34807Q96.6083 1.45717 96.766 1.57414Q96.9237 1.69112 97.0755 1.81569Q97.2273 1.94026 97.3728 2.07213Q97.5183 2.204 97.6571 2.34285Q97.796 2.4817 97.9279 2.6272Q98.0597 2.7727 98.1843 2.92449Q98.3089 3.07628 98.4258 3.234Q98.5428 3.39172 98.6519 3.55499Q98.761 3.71826 98.862 3.88669Q98.9629 4.05512 99.0555 4.2283Q99.148 4.40148 99.232 4.57899Q99.316 4.7565 99.3911 4.93791Q99.4662 5.11933 99.5324 5.30422Q99.5986 5.4891 99.6556 5.67701Q99.7126 5.86492 99.7603 6.0554Q99.808 6.24588 99.8463 6.43847Q99.8846 6.63106 99.9134 6.8253Q99.9422 7.01954 99.9615 7.21496Q99.9807 7.41038 99.9904 7.60651Q100 7.80264 100 7.999L100 92.001Q100 92.1974 99.9904 92.3935Q99.9807 92.5896 99.9615 92.785Q99.9422 92.9805 99.9134 93.1747Q99.8846 93.3689 99.8463 93.5615Q99.808 93.7541 99.7603 93.9446Q99.7126 94.1351 99.6556 94.323Q99.5985 94.5109 99.5324 94.6958Q99.4662 94.8807 99.3911 95.0621Q99.3159 95.2435 99.232 95.421Q99.148 95.5985 99.0555 95.7717Q98.9629 95.9449 98.862 96.1133Q98.761 96.2817 98.6519 96.445Q98.5428 96.6083 98.4258 96.766Q98.3089 96.9237 98.1843 97.0755Q98.0597 97.2273 97.9279 97.3728Q97.796 97.5183 97.6571 97.6571Q97.5183 97.796 97.3728 97.9279Q97.2273 98.0597 97.0755 98.1843Q96.9237 98.3089 96.766 98.4258Q96.6083 98.5428 96.445 98.6519Q96.2817 98.761 96.1133 98.862Q95.9449 98.9629 95.7717 99.0555Q95.5985 99.148 95.421 99.232Q95.2435 99.316 95.0621 99.3911Q94.8807 99.4662 94.6958 99.5324Q94.5109 99.5986 94.323 99.6556Q94.1351 99.7126 93.9446 99.7603Q93.7541 99.808 93.5615 99.8463Q93.3689 99.8846 93.1747 99.9134Q92.9805 99.9422 92.785 99.9615Q92.5896 99.9807 92.3935 99.9904Q92.1974 100 92.001 100L7.999 100Q7.80264 100 7.60651 99.9904Q7.41038 99.9807 7.21496 99.9615Q7.01954 99.9422 6.8253 99.9134Q6.63106 99.8846 6.43847 99.8463Q6.24588 99.808 6.0554 99.7603Q5.86492 99.7126 5.67701 99.6556Q5.4891 99.5985 5.30422 99.5324Q5.11933 99.4662 4.93791 99.3911Q4.7565 99.3159 4.57899 99.232Q4.40148 99.148 4.2283 99.0555Q4.05512 98.9629 3.88669 98.862Q3.71826 98.761 3.55499 98.6519Q3.39172 98.5428 3.234 98.4258Q3.07628 98.3089 2.92449 98.1843Q2.7727 98.0597 2.6272 97.9279Q2.4817 97.796 2.34285 97.6571Q2.204 97.5183 2.07213 97.3728Q1.94026 97.2273 1.81569 97.0755Q1.69112 96.9237 1.57414 96.766Q1.45717 96.6083 1.34807 96.445Q1.23898 96.2817 1.13803 96.1133Q1.03708 95.9449 0.944512 95.7717Q0.851946 95.5985 0.76799 95.421Q0.684033 95.2435 0.608888 95.0621Q0.533742 94.8807 0.467589 94.6958Q0.401436 94.5109 0.344434 94.323Q0.287433 94.1351 0.23972 93.9446Q0.192007 93.7541 0.153699 93.5615Q0.11539 93.3689 0.0865771 93.1747Q0.0577644 92.9805 0.0385174 92.785Q0.0192703 92.5896 0.00963514 92.3935Q0 92.1974 0 92.001L0 7.999Q0 7.80264 0.00963514 7.60651Q0.0192703 7.41038 0.0385174 7.21496Q0.0577644 7.01954 0.0865771 6.8253Q0.11539 6.63106 0.153699 6.43847Q0.192007 6.24588 0.23972 6.0554Q0.287433 5.86492 0.344434 5.67701Q0.401436 5.4891 0.467589 5.30422Q0.533742 5.11933 0.608888 4.93791Q0.684033 4.7565 0.76799 4.57899Q0.851946 4.40148 0.944512 4.2283Q1.03708 4.05512 1.13803 3.88669Q1.23898 3.71826 1.34807 3.55499Q1.45717 3.39172 1.57414 3.234Q1.69112 3.07628 1.81569 2.92449Q1.94026 2.7727 2.07213 2.6272Q2.204 2.4817 2.34285 2.34285Q2.4817 2.204 2.6272 2.07213Q2.7727 1.94026 2.92449 1.81569Q3.07628 1.69112 3.234 1.57414Q3.39172 1.45717 3.55499 1.34807Q3.71826 1.23898 3.88669 1.13803Q4.05512 1.03708 4.2283 0.944512Q4.40148 0.851946 4.57899 0.76799Q4.7565 0.684033 4.93791 0.608888Q5.11933 0.533742 5.30422 0.467589Q5.4891 0.401436 5.67701 0.344434Q5.86492 0.287433 6.0554 0.23972Q6.24588 0.192007 6.43847 0.153699Q6.63106 0.11539 6.8253 0.0865771Q7.01954 0.0577644 7.21496 0.0385174Q7.41038 0.0192703 7.60651 0.00963514Q7.80264 0 7.999 0Z" transform="translate(124.9267 0)" id="path_1" />
  </defs>
  <g id="Software" transform="translate(5 5)">
    <path d="M7.999 0L92.001 0Q92.1974 0 92.3935 0.00963514Q92.5896 0.0192703 92.785 0.0385174Q92.9805 0.0577644 93.1747 0.0865771Q93.3689 0.11539 93.5615 0.153699Q93.7541 0.192007 93.9446 0.23972Q94.1351 0.287433 94.323 0.344434Q94.5109 0.401436 94.6958 0.467589Q94.8807 0.533742 95.0621 0.608888Q95.2435 0.684033 95.421 0.76799Q95.5985 0.851946 95.7717 0.944512Q95.9449 1.03708 96.1133 1.13803Q96.2817 1.23898 96.445 1.34807Q96.6083 1.45717 96.766 1.57414Q96.9237 1.69112 97.0755 1.81569Q97.2273 1.94026 97.3728 2.07213Q97.5183 2.204 97.6571 2.34285Q97.796 2.4817 97.9279 2.6272Q98.0597 2.7727 98.1843 2.92449Q98.3089 3.07628 98.4258 3.234Q98.5428 3.39172 98.6519 3.55499Q98.761 3.71826 98.862 3.88669Q98.9629 4.05512 99.0555 4.2283Q99.148 4.40148 99.232 4.57899Q99.316 4.7565 99.3911 4.93791Q99.4662 5.11933 99.5324 5.30422Q99.5986 5.4891 99.6556 5.67701Q99.7126 5.86492 99.7603 6.0554Q99.808 6.24588 99.8463 6.43847Q99.8846 6.63106 99.9134 6.8253Q99.9422 7.01954 99.9615 7.21496Q99.9807 7.41038 99.9904 7.60651Q100 7.80264 100 7.999L100 92.001Q100 92.1974 99.9904 92.3935Q99.9807 92.5896 99.9615 92.785Q99.9422 92.9805 99.9134 93.1747Q99.8846 93.3689 99.8463 93.5615Q99.808 93.7541 99.7603 93.9446Q99.7126 94.1351 99.6556 94.323Q99.5985 94.5109 99.5324 94.6958Q99.4662 94.8807 99.3911 95.0621Q99.3159 95.2435 99.232 95.421Q99.148 95.5985 99.0555 95.7717Q98.9629 95.9449 98.862 96.1133Q98.761 96.2817 98.6519 96.445Q98.5428 96.6083 98.4258 96.766Q98.3089 96.9237 98.1843 97.0755Q98.0597 97.2273 97.9279 97.3728Q97.796 97.5183 97.6571 97.6571Q97.5183 97.796 97.3728 97.9279Q97.2273 98.0597 97.0755 98.1843Q96.9237 98.3089 96.766 98.4258Q96.6083 98.5428 96.445 98.6519Q96.2817 98.761 96.1133 98.862Q95.9449 98.9629 95.7717 99.0555Q95.5985 99.148 95.421 99.232Q95.2435 99.316 95.0621 99.3911Q94.8807 99.4662 94.6958 99.5324Q94.5109 99.5986 94.323 99.6556Q94.1351 99.7126 93.9446 99.7603Q93.7541 99.808 93.5615 99.8463Q93.3689 99.8846 93.1747 99.9134Q92.9805 99.9422 92.785 99.9615Q92.5896 99.9807 92.3935 99.9904Q92.1974 100 92.001 100L7.999 100Q7.80264 100 7.60651 99.9904Q7.41038 99.9807 7.21496 99.9615Q7.01954 99.9422 6.8253 99.9134Q6.63106 99.8846 6.43847 99.8463Q6.24588 99.808 6.0554 99.7603Q5.86492 99.7126 5.67701 99.6556Q5.4891 99.5985 5.30422 99.5324Q5.11933 99.4662 4.93791 99.3911Q4.7565 99.3159 4.57899 99.232Q4.40148 99.148 4.2283 99.0555Q4.05512 98.9629 3.88669 98.862Q3.71826 98.761 3.55499 98.6519Q3.39172 98.5428 3.234 98.4258Q3.07628 98.3089 2.92449 98.1843Q2.7727 98.0597 2.6272 97.9279Q2.4817 97.796 2.34285 97.6571Q2.204 97.5183 2.07213 97.3728Q1.94026 97.2273 1.81569 97.0755Q1.69112 96.9237 1.57414 96.766Q1.45717 96.6083 1.34807 96.445Q1.23898 96.2817 1.13803 96.1133Q1.03708 95.9449 0.944512 95.7717Q0.851946 95.5985 0.76799 95.421Q0.684033 95.2435 0.608888 95.0621Q0.533742 94.8807 0.467589 94.6958Q0.401436 94.5109 0.344434 94.323Q0.287433 94.1351 0.23972 93.9446Q0.192007 93.7541 0.153699 93.5615Q0.11539 93.3689 0.0865771 93.1747Q0.0577644 92.9805 0.0385174 92.785Q0.0192703 92.5896 0.00963514 92.3935Q0 92.1974 0 92.001L0 7.999Q0 7.80264 0.00963514 7.60651Q0.0192703 7.41038 0.0385174 7.21496Q0.0577644 7.01954 0.0865771 6.8253Q0.11539 6.63106 0.153699 6.43847Q0.192007 6.24588 0.23972 6.0554Q0.287433 5.86492 0.344434 5.67701Q0.401436 5.4891 0.467589 5.30422Q0.533742 5.11933 0.608888 4.93791Q0.684033 4.7565 0.76799 4.57899Q0.851946 4.40148 0.944512 4.2283Q1.03708 4.05512 1.13803 3.88669Q1.23898 3.71826 1.34807 3.55499Q1.45717 3.39172 1.57414 3.234Q1.69112 3.07628 1.81569 2.92449Q1.94026 2.7727 2.07213 2.6272Q2.204 2.4817 2.34285 2.34285Q2.4817 2.204 2.6272 2.07213Q2.7727 1.94026 2.92449 1.81569Q3.07628 1.69112 3.234 1.57414Q3.39172 1.45717 3.55499 1.34807Q3.71826 1.23898 3.88669 1.13803Q4.05512 1.03708 4.2283 0.944512Q4.40148 0.851946 4.57899 0.76799Q4.7565 0.684033 4.93791 0.608888Q5.11933 0.533742 5.30422 0.467589Q5.4891 0.401436 5.67701 0.344434Q5.86492 0.287433 6.0554 0.23972Q6.24588 0.192007 6.43847 0.153699Q6.63106 0.11539 6.8253 0.0865771Q7.01954 0.0577644 7.21496 0.0385174Q7.41038 0.0192703 7.60651 0.00963514Q7.80264 0 7.999 0Z" transform="translate(237.9267 113)" id="Rectangle-4" fill="#888999" fill-opacity="0.99" stroke="none" />
    <path d="M7.999 0L92.001 0Q92.1974 0 92.3935 0.00963514Q92.5896 0.0192703 92.785 0.0385174Q92.9805 0.0577644 93.1747 0.0865771Q93.3689 0.11539 93.5615 0.153699Q93.7541 0.192007 93.9446 0.23972Q94.1351 0.287433 94.323 0.344434Q94.5109 0.401436 94.6958 0.467589Q94.8807 0.533742 95.0621 0.608888Q95.2435 0.684033 95.421 0.76799Q95.5985 0.851946 95.7717 0.944512Q95.9449 1.03708 96.1133 1.13803Q96.2817 1.23898 96.445 1.34807Q96.6083 1.45717 96.766 1.57414Q96.9237 1.69112 97.0755 1.81569Q97.2273 1.94026 97.3728 2.07213Q97.5183 2.204 97.6571 2.34285Q97.796 2.4817 97.9279 2.6272Q98.0597 2.7727 98.1843 2.92449Q98.3089 3.07628 98.4258 3.234Q98.5428 3.39172 98.6519 3.55499Q98.761 3.71826 98.862 3.88669Q98.9629 4.05512 99.0555 4.2283Q99.148 4.40148 99.232 4.57899Q99.316 4.7565 99.3911 4.93791Q99.4662 5.11933 99.5324 5.30422Q99.5986 5.4891 99.6556 5.67701Q99.7126 5.86492 99.7603 6.0554Q99.808 6.24588 99.8463 6.43847Q99.8846 6.63106 99.9134 6.8253Q99.9422 7.01954 99.9615 7.21496Q99.9807 7.41038 99.9904 7.60651Q100 7.80264 100 7.999L100 92.001Q100 92.1974 99.9904 92.3935Q99.9807 92.5896 99.9615 92.785Q99.9422 92.9805 99.9134 93.1747Q99.8846 93.3689 99.8463 93.5615Q99.808 93.7541 99.7603 93.9446Q99.7126 94.1351 99.6556 94.323Q99.5985 94.5109 99.5324 94.6958Q99.4662 94.8807 99.3911 95.0621Q99.3159 95.2435 99.232 95.421Q99.148 95.5985 99.0555 95.7717Q98.9629 95.9449 98.862 96.1133Q98.761 96.2817 98.6519 96.445Q98.5428 96.6083 98.4258 96.766Q98.3089 96.9237 98.1843 97.0755Q98.0597 97.2273 97.9279 97.3728Q97.796 97.5183 97.6571 97.6571Q97.5183 97.796 97.3728 97.9279Q97.2273 98.0597 97.0755 98.1843Q96.9237 98.3089 96.766 98.4258Q96.6083 98.5428 96.445 98.6519Q96.2817 98.761 96.1133 98.862Q95.9449 98.9629 95.7717 99.0555Q95.5985 99.148 95.421 99.232Q95.2435 99.316 95.0621 99.3911Q94.8807 99.4662 94.6958 99.5324Q94.5109 99.5986 94.323 99.6556Q94.1351 99.7126 93.9446 99.7603Q93.7541 99.808 93.5615 99.8463Q93.3689 99.8846 93.1747 99.9134Q92.9805 99.9422 92.785 99.9615Q92.5896 99.9807 92.3935 99.9904Q92.1974 100 92.001 100L7.999 100Q7.80264 100 7.60651 99.9904Q7.41038 99.9807 7.21496 99.9615Q7.01954 99.9422 6.8253 99.9134Q6.63106 99.8846 6.43847 99.8463Q6.24588 99.808 6.0554 99.7603Q5.86492 99.7126 5.67701 99.6556Q5.4891 99.5985 5.30422 99.5324Q5.11933 99.4662 4.93791 99.3911Q4.7565 99.3159 4.57899 99.232Q4.40148 99.148 4.2283 99.0555Q4.05512 98.9629 3.88669 98.862Q3.71826 98.761 3.55499 98.6519Q3.39172 98.5428 3.234 98.4258Q3.07628 98.3089 2.92449 98.1843Q2.7727 98.0597 2.6272 97.9279Q2.4817 97.796 2.34285 97.6571Q2.204 97.5183 2.07213 97.3728Q1.94026 97.2273 1.81569 97.0755Q1.69112 96.9237 1.57414 96.766Q1.45717 96.6083 1.34807 96.445Q1.23898 96.2817 1.13803 96.1133Q1.03708 95.9449 0.944512 95.7717Q0.851946 95.5985 0.76799 95.421Q0.684033 95.2435 0.608888 95.0621Q0.533742 94.8807 0.467589 94.6958Q0.401436 94.5109 0.344434 94.323Q0.287433 94.1351 0.23972 93.9446Q0.192007 93.7541 0.153699 93.5615Q0.11539 93.3689 0.0865771 93.1747Q0.0577644 92.9805 0.0385174 92.785Q0.0192703 92.5896 0.00963514 92.3935Q0 92.1974 0 92.001L0 7.999Q0 7.80264 0.00963514 7.60651Q0.0192703 7.41038 0.0385174 7.21496Q0.0577644 7.01954 0.0865771 6.8253Q0.11539 6.63106 0.153699 6.43847Q0.192007 6.24588 0.23972 6.0554Q0.287433 5.86492 0.344434 5.67701Q0.401436 5.4891 0.467589 5.30422Q0.533742 5.11933 0.608888 4.93791Q0.684033 4.7565 0.76799 4.57899Q0.851946 4.40148 0.944512 4.2283Q1.03708 4.05512 1.13803 3.88669Q1.23898 3.71826 1.34807 3.55499Q1.45717 3.39172 1.57414 3.234Q1.69112 3.07628 1.81569 2.92449Q1.94026 2.7727 2.07213 2.6272Q2.204 2.4817 2.34285 2.34285Q2.4817 2.204 2.6272 2.07213Q2.7727 1.94026 2.92449 1.81569Q3.07628 1.69112 3.234 1.57414Q3.39172 1.45717 3.55499 1.34807Q3.71826 1.23898 3.88669 1.13803Q4.05512 1.03708 4.2283 0.944512Q4.40148 0.851946 4.57899 0.76799Q4.7565 0.684033 4.93791 0.608888Q5.11933 0.533742 5.30422 0.467589Q5.4891 0.401436 5.67701 0.344434Q5.86492 0.287433 6.0554 0.23972Q6.24588 0.192007 6.43847 0.153699Q6.63106 0.11539 6.8253 0.0865771Q7.01954 0.0577644 7.21496 0.0385174Q7.41038 0.0192703 7.60651 0.00963514Q7.80264 0 7.999 0Z" transform="translate(124.9267 113)" id="Rectangle-3" fill="#999999" stroke="none" />
    <path d="M7.999 0L92.001 0Q92.1974 0 92.3935 0.00963514Q92.5896 0.0192703 92.785 0.0385174Q92.9805 0.0577644 93.1747 0.0865771Q93.3689 0.11539 93.5615 0.153699Q93.7541 0.192007 93.9446 0.23972Q94.1351 0.287433 94.323 0.344434Q94.5109 0.401436 94.6958 0.467589Q94.8807 0.533742 95.0621 0.608888Q95.2435 0.684033 95.421 0.76799Q95.5985 0.851946 95.7717 0.944512Q95.9449 1.03708 96.1133 1.13803Q96.2817 1.23898 96.445 1.34807Q96.6083 1.45717 96.766 1.57414Q96.9237 1.69112 97.0755 1.81569Q97.2273 1.94026 97.3728 2.07213Q97.5183 2.204 97.6571 2.34285Q97.796 2.4817 97.9279 2.6272Q98.0597 2.7727 98.1843 2.92449Q98.3089 3.07628 98.4258 3.234Q98.5428 3.39172 98.6519 3.55499Q98.761 3.71826 98.862 3.88669Q98.9629 4.05512 99.0555 4.2283Q99.148 4.40148 99.232 4.57899Q99.316 4.7565 99.3911 4.93791Q99.4662 5.11933 99.5324 5.30422Q99.5986 5.4891 99.6556 5.67701Q99.7126 5.86492 99.7603 6.0554Q99.808 6.24588 99.8463 6.43847Q99.8846 6.63106 99.9134 6.8253Q99.9422 7.01954 99.9615 7.21496Q99.9807 7.41038 99.9904 7.60651Q100 7.80264 100 7.999L100 92.001Q100 92.1974 99.9904 92.3935Q99.9807 92.5896 99.9615 92.785Q99.9422 92.9805 99.9134 93.1747Q99.8846 93.3689 99.8463 93.5615Q99.808 93.7541 99.7603 93.9446Q99.7126 94.1351 99.6556 94.323Q99.5985 94.5109 99.5324 94.6958Q99.4662 94.8807 99.3911 95.0621Q99.3159 95.2435 99.232 95.421Q99.148 95.5985 99.0555 95.7717Q98.9629 95.9449 98.862 96.1133Q98.761 96.2817 98.6519 96.445Q98.5428 96.6083 98.4258 96.766Q98.3089 96.9237 98.1843 97.0755Q98.0597 97.2273 97.9279 97.3728Q97.796 97.5183 97.6571 97.6571Q97.5183 97.796 97.3728 97.9279Q97.2273 98.0597 97.0755 98.1843Q96.9237 98.3089 96.766 98.4258Q96.6083 98.5428 96.445 98.6519Q96.2817 98.761 96.1133 98.862Q95.9449 98.9629 95.7717 99.0555Q95.5985 99.148 95.421 99.232Q95.2435 99.316 95.0621 99.3911Q94.8807 99.4662 94.6958 99.5324Q94.5109 99.5986 94.323 99.6556Q94.1351 99.7126 93.9446 99.7603Q93.7541 99.808 93.5615 99.8463Q93.3689 99.8846 93.1747 99.9134Q92.9805 99.9422 92.785 99.9615Q92.5896 99.9807 92.3935 99.9904Q92.1974 100 92.001 100L7.999 100Q7.80264 100 7.60651 99.9904Q7.41038 99.9807 7.21496 99.9615Q7.01954 99.9422 6.8253 99.9134Q6.63106 99.8846 6.43847 99.8463Q6.24588 99.808 6.0554 99.7603Q5.86492 99.7126 5.67701 99.6556Q5.4891 99.5985 5.30422 99.5324Q5.11933 99.4662 4.93791 99.3911Q4.7565 99.3159 4.57899 99.232Q4.40148 99.148 4.2283 99.0555Q4.05512 98.9629 3.88669 98.862Q3.71826 98.761 3.55499 98.6519Q3.39172 98.5428 3.234 98.4258Q3.07628 98.3089 2.92449 98.1843Q2.7727 98.0597 2.6272 97.9279Q2.4817 97.796 2.34285 97.6571Q2.204 97.5183 2.07213 97.3728Q1.94026 97.2273 1.81569 97.0755Q1.69112 96.9237 1.57414 96.766Q1.45717 96.6083 1.34807 96.445Q1.23898 96.2817 1.13803 96.1133Q1.03708 95.9449 0.944512 95.7717Q0.851946 95.5985 0.76799 95.421Q0.684033 95.2435 0.608888 95.0621Q0.533742 94.8807 0.467589 94.6958Q0.401436 94.5109 0.344434 94.323Q0.287433 94.1351 0.23972 93.9446Q0.192007 93.7541 0.153699 93.5615Q0.11539 93.3689 0.0865771 93.1747Q0.0577644 92.9805 0.0385174 92.785Q0.0192703 92.5896 0.00963514 92.3935Q0 92.1974 0 92.001L0 7.999Q0 7.80264 0.00963514 7.60651Q0.0192703 7.41038 0.0385174 7.21496Q0.0577644 7.01954 0.0865771 6.8253Q0.11539 6.63106 0.153699 6.43847Q0.192007 6.24588 0.23972 6.0554Q0.287433 5.86492 0.344434 5.67701Q0.401436 5.4891 0.467589 5.30422Q0.533742 5.11933 0.608888 4.93791Q0.684033 4.7565 0.76799 4.57899Q0.851946 4.40148 0.944512 4.2283Q1.03708 4.05512 1.13803 3.88669Q1.23898 3.71826 1.34807 3.55499Q1.45717 3.39172 1.57414 3.234Q1.69112 3.07628 1.81569 2.92449Q1.94026 2.7727 2.07213 2.6272Q2.204 2.4817 2.34285 2.34285Q2.4817 2.204 2.6272 2.07213Q2.7727 1.94026 2.92449 1.81569Q3.07628 1.69112 3.234 1.57414Q3.39172 1.45717 3.55499 1.34807Q3.71826 1.23898 3.88669 1.13803Q4.05512 1.03708 4.2283 0.944512Q4.40148 0.851946 4.57899 0.76799Q4.7565 0.684033 4.93791 0.608888Q5.11933 0.533742 5.30422 0.467589Q5.4891 0.401436 5.67701 0.344434Q5.86492 0.287433 6.0554 0.23972Q6.24588 0.192007 6.43847 0.153699Q6.63106 0.11539 6.8253 0.0865771Q7.01954 0.0577644 7.21496 0.0385174Q7.41038 0.0192703 7.60651 0.00963514Q7.80264 0 7.999 0Z" transform="translate(237.9267 0)" id="Rectangle-2" fill="#999999" fill-opacity="0.99" stroke="none" />
    <g id="Rectangle">
      <use xlink:href="#path_1" fill="none" stroke="#686868" stroke-width="10" />
      <use stroke="none" fill="#333333" xlink:href="#path_1" />
    </g>
    <g id="icon" transform="matrix(0.8660254 -0.5 0.5 0.8660254 0 147.8392)">
      <path d="M0 0L128 0L128 134.767L0 134.767L0 0Z" transform="translate(23.84749 32.42892)" id="Background" fill="none" stroke="none" />
      <g id="Group-2" transform="matrix(0.8660254 0.5 -0.5 0.8660254 72.08765 0)">
        <g id="Group" transform="matrix(0.9659258 0.258819 -0.258819 0.9659258 31.02191 0)">
          <g id="Group" transform="translate(2.431763 39.44745)">
            <path d="M0 0L104.866 0L104.866 80.412L0 80.412L0 0L0 0Z" id="Rectangle-4" fill="#FCF6CB" stroke="none" />
          </g>
          <g id="Group" transform="translate(-3.051758E-05 -3.051758E-05)">
            <path d="M0 0L109.729 0L109.729 39.7508L0 39.7508L0 0L0 0Z" transform="translate(3.051758E-05 1.525879E-05)" id="Rectangle-2" fill="#FDF7D3" stroke="none" />
          </g>
          <g id="Group" transform="translate(2.127716 1.722092)">
            <path d="M0 0L105.474 0L105.474 35.8061L0 35.8061L0 0L0 0Z" id="Rectangle" fill="#FAE065" stroke="#000000" stroke-width="3" />
          </g>
          <g id="Group" transform="translate(4.255402 37.6268)">
            <path d="M0 0L101.218 0L101.218 80.412L0 80.412L0 0L0 0Z" id="Rectangle-3" fill="#FFFFF2" stroke="#000000" stroke-width="3" />
          </g>
          <g id="Group" transform="translate(18.68982 46.65106)">
            <g id="Oto">
              <path d="M4.46451 4.41326Q-3.05176e-05 8.82651 -3.05176e-05 15.4245Q-3.08752e-05 22.0226 4.31131 26.414Q8.62265 30.8054 15.2319 30.8054Q21.885 30.8054 26.1525 26.4358Q30.4201 22.0663 30.4201 15.2498Q30.4201 8.78281 26.1963 4.39141Q21.9725 0 15.6696 0Q8.92905 0 4.46451 4.41326ZM25.8243 15.2498Q25.8243 9.21976 23.1762 5.76781Q20.5281 2.31586 15.6697 2.31586Q10.5048 2.31586 7.57221 5.81151Q4.63962 9.30715 4.63962 15.643Q4.63962 21.673 7.57221 25.1687Q10.5048 28.6643 15.2757 28.6643Q20.0029 28.6643 22.9136 24.9502Q25.8243 21.2361 25.8243 15.2498ZM40.2039 2.44693L38.7157 2.44693C38.3364 4.89388 37.7163 6.66356 36.8555 7.75595C35.9947 8.84834 34.6743 9.61301 32.8943 10.05L32.8943 11.8415L36.6585 11.8415L36.6585 24.9502C36.6585 26.4941 36.8044 27.601 37.0962 28.271C37.388 28.941 37.9862 29.5309 38.8908 30.0407C39.7954 30.5505 40.7729 30.8054 41.8234 30.8054C43.7493 30.8054 45.646 30.1645 47.5135 28.8828L47.5135 26.8291C45.9086 28.0234 44.4204 28.6206 43.049 28.6206C42.2319 28.6206 41.5535 28.3584 41.0136 27.8341C40.4738 27.3097 40.2039 26.261 40.2039 24.688L40.2039 11.8415L46.5506 11.8415L46.5506 9.7004L40.2039 9.7004L40.2039 2.44693ZM51.5635 12.1911Q48.6309 15.2061 48.6309 20.0126Q48.6309 24.7754 51.4322 27.7904C53.2997 29.8004 55.8238 30.8054 59.0044 30.8054C62.2434 30.8054 64.8258 29.815 66.7517 27.8341C68.6776 25.8532 69.6405 23.2315 69.6405 19.9689Q69.6405 15.1187 66.7954 12.1474C64.8987 10.1665 62.3893 9.17609 59.267 9.17609Q54.4961 9.17609 51.5635 12.1911ZM65.526 19.9252Q65.526 15.9052 63.8409 13.5675C62.7175 12.009 61.1344 11.2297 59.0918 11.2297C57.2243 11.2297 55.7143 12.0454 54.5616 13.6767Q52.8327 16.1236 52.8327 20.1436C52.8327 22.911 53.3799 25.0594 54.4741 26.5887C55.5684 28.1181 57.1076 28.8828 59.0918 28.8828Q61.9807 28.8828 63.7533 26.4577C64.9351 24.8409 65.526 22.6634 65.526 19.9252Z" id="Shape" fill="#000000" fill-rule="evenodd" stroke="none" />
            </g>
          </g>
          <g id="Group" transform="translate(11.02704 77.20416)">
            <g id="Mad">
              <path d="M74.1633 3.58304L74.1633 1.79152C75.9725 1.675 77.8692 1.07782 79.8534 0L81.4729 0L81.4729 25.8678C81.4729 27.0039 81.5386 27.8195 81.6699 28.3147C81.8012 28.81 82.0492 29.1304 82.414 29.276C82.7787 29.4217 83.3988 29.4945 84.2742 29.4945L85.1934 29.4945L85.1934 31.286L77.7525 31.6356L77.7525 28.2274C75.2138 30.616 72.6314 31.8104 70.0052 31.8104C67.4665 31.8104 65.3364 30.7835 63.6148 28.7298Q61.0323 25.6493 61.0323 21.2361C61.0323 18.1482 61.9734 15.5338 63.8555 13.3927Q66.6787 10.1811 70.8368 10.1811Q75.0387 10.1811 77.7525 13.0213L77.7525 3.58304L74.1633 3.58304ZM0 1.52945L9.41055 1.52945L18.2083 25.0814L26.7872 1.52945L35.8914 1.52945L35.8914 3.32097L35.1473 3.32097C34.0676 3.32097 33.309 3.49575 32.8713 3.84532C32.4336 4.19488 32.2147 5.0251 32.2147 6.33596L32.2147 25.9553C32.2147 27.4701 32.3752 28.4387 32.6962 28.861C33.0172 29.2834 33.8342 29.4946 35.1473 29.4946L35.8914 29.4946L35.8914 31.2861L24.5112 31.2861L24.5112 29.4946L25.2991 29.4946Q27.0499 29.4946 27.6407 28.9484C28.0347 28.5843 28.2316 27.7905 28.2316 26.567L28.2316 4.67553L18.5147 31.2861L16.37 31.2861L6.5655 5.0251L6.5655 26.1301Q6.5655 28.2275 7.30959 28.861Q8.05368 29.4946 9.80448 29.4946L10.5048 29.4946L10.5048 31.2861L0 31.2861L0 29.4946L0.61278 29.4946C2.0426 29.4946 2.96177 29.2543 3.37029 28.7737Q3.98307 28.0527 3.98307 25.9553L3.98307 6.51075Q3.98307 4.23858 3.37029 3.77977Q2.75751 3.32097 1.00671 3.32097L0 3.32097L0 1.52945ZM52.992 16.6043L52.992 19.1387Q43.669 20.1437 40.7145 21.8696Q37.7601 23.5956 37.7601 26.5232C37.7601 27.9797 38.3874 29.2251 39.6422 30.2592C40.8969 31.2933 42.4726 31.8104 44.3693 31.8104C45.9742 31.8104 47.4697 31.5191 48.8558 30.9365Q50.9348 30.0626 53.2109 28.2273C53.6486 30.616 55.2827 31.8104 58.1131 31.8104C59.1052 31.8104 60.1411 31.6647 61.2208 31.3734L61.2208 29.4945C60.287 29.8149 59.5575 29.9752 59.0323 29.9752C58.5362 29.9752 58.0912 29.8368 57.6973 29.5601C57.3034 29.2833 57.0407 28.9192 56.9094 28.4677Q56.7125 27.7904 56.7125 25.8678L56.7125 17.4345C56.7125 14.9293 56.0632 13.0941 54.7647 11.9289Q52.8169 10.1811 48.5275 10.1811Q44.2818 10.1811 41.7431 11.9726C40.0507 13.1669 39.2045 14.5069 39.2045 15.9926C39.2045 16.6334 39.3796 17.1578 39.7297 17.5656C40.0799 17.9734 40.5322 18.1774 41.0866 18.1774C41.6118 18.1774 42.0495 18.0099 42.3997 17.6749C42.7498 17.3399 42.9833 16.8665 43.1 16.2547C43.3918 14.74 43.8952 13.684 44.6101 13.0868C45.325 12.4896 46.4265 12.1911 47.9147 12.1911Q50.8069 12.1911 52.0516 13.6231Q52.992 14.705 52.992 16.6043ZM77.7525 18.0464L77.7525 26.13C76.6436 27.1205 75.4837 27.8997 74.2728 28.4678C73.0618 29.0358 71.9894 29.3198 71.0557 29.3198C69.4508 29.3198 68.0647 28.5551 66.8975 27.0258C65.7303 25.4964 65.1467 23.5083 65.1467 21.0613Q65.1467 17.2161 67.0726 14.8566C68.3565 13.2835 69.976 12.497 71.9311 12.497C73.2733 12.497 74.5792 12.9485 75.8485 13.8516Q77.7525 15.2061 77.7525 18.0464ZM43.472 23.2025C44.683 22.416 47.8563 21.6877 52.992 21.0177L52.992 26.1738Q48.4837 29.3636 45.376 29.3636C44.3255 29.3636 43.4429 29.0504 42.7279 28.4241C42.013 27.7978 41.6556 27.0331 41.6556 26.1301C41.6556 24.9649 42.2611 23.989 43.472 23.2025Z" id="Shape" fill="#000000" fill-rule="evenodd" stroke="none" />
            </g>
          </g>
        </g>
      </g>
    </g>
  </g>
</svg>