<?xml version="1.0" encoding="utf-8"?>
<svg width="212px" height="55px" viewBox="0 0 212 55" version="1.1" xmlns:xlink="http://www.w3.org/1999/xlink" xmlns="http://www.w3.org/2000/svg">
  <desc>Created with Lunacy</desc>
  <g id="Group" transform="translate(0.5 0.5)">
    <g id="Twitter-icon" transform="translate(0 4)">
      <path d="M0 0L50 0L50 50L0 50L0 0Z" id="Background" fill="none" stroke="none" />
      <path d="M37.5031 3.57187C36.125 4.18229 34.6427 4.58958 33.0792 4.78229C34.6687 3.83854 35.8917 2.33333 36.4656 0.555207C34.9781 1.42708 33.3302 2.06771 31.5771 2.40521C30.1771 0.920833 28.1802 0 25.9677 0C21.7177 0 18.2729 3.41458 18.2729 7.625C18.2729 8.22083 18.3427 8.80104 18.474 9.36458C12.0802 9.04375 6.40937 6.00417 2.61562 1.39167C1.94896 2.51875 1.57396 3.83854 1.57396 5.23125C1.57396 7.87812 2.92917 10.2083 4.99583 11.5812C3.73437 11.5427 2.54687 11.1917 1.50729 10.6292C1.50729 10.6521 1.50729 10.6865 1.50729 10.7187C1.50729 14.4177 4.16042 17.4979 7.67708 18.199C7.03437 18.375 6.35521 18.4729 5.65521 18.4729C5.15833 18.4729 4.67396 18.4167 4.20521 18.3323C5.18437 21.3552 8.025 23.5646 11.3906 23.6302C8.75729 25.6719 5.44062 26.8948 1.83437 26.8948C1.21146 26.8948 0.602083 26.8594 0 26.7865C3.40729 28.9437 7.45312 30.2083 11.7958 30.2083C25.9469 30.2083 33.6885 18.5875 33.6885 8.50625C33.6885 8.17604 33.6781 7.84687 33.6625 7.52187C35.1729 6.45521 36.475 5.10937 37.5031 3.57187" transform="translate(6.246872 9.375)" id="Shape" fill="#03A9F4" stroke="none" />
    </g>
    <g id="推特" fill="#686868" transform="translate(48 0)">
      <path d="M17.082 21.194L9.468 21.194L9.468 22.004L7.776 22.004L7.776 12.032C7.416 12.554 7.02 13.058 6.606 13.562L6.03 11.762C7.452 9.854 8.46 7.784 9.036 5.516L10.692 5.84Q10.314 7.19 9.774 8.432L12.528 8.432C12.24 7.568 11.916 6.704 11.556 5.876L13.194 5.444C13.59 6.542 13.914 7.532 14.13 8.432L16.884 8.432L16.884 10.07L13.95 10.07L13.95 12.14L16.524 12.14L16.524 13.742L13.95 13.742L13.95 15.74L16.524 15.74L16.524 17.324L13.95 17.324L13.95 19.556L17.082 19.556L17.082 21.194ZM29.322 7.262L29.322 5.462L30.978 5.462L30.978 7.262L35.154 7.262L35.154 8.846L30.978 8.846L30.978 10.574L34.596 10.574L34.596 12.176L25.92 12.176L25.92 10.574L29.322 10.574L29.322 8.846L25.2 8.846L25.2 7.262L29.322 7.262ZM4.806 13.454C5.328 13.238 5.832 13.004 6.336 12.752L6.336 14.498C5.832 14.732 5.31 14.948 4.806 15.164L4.806 20.078C4.806 21.23 4.194 21.824 2.988 21.824L1.368 21.824L0.99 20.168Q1.719 20.276 2.394 20.276C2.862 20.276 3.096 20.06 3.096 19.646L3.096 15.812C2.412 16.046 1.71 16.262 1.026 16.46L0.594 14.732C1.44 14.552 2.268 14.336 3.096 14.084L3.096 10.304L0.936 10.304L0.936 8.648L3.096 8.648L3.096 5.48L4.806 5.48L4.806 8.648L6.48 8.648L6.48 10.304L4.806 10.304L4.806 13.454ZM22.032 10.754L20.718 10.754C20.556 11.618 20.358 12.446 20.124 13.274L18.63 12.86C19.17 10.988 19.476 8.99 19.548 6.902L21.096 7.028C21.06 7.73 21.024 8.414 20.952 9.098L22.032 9.098L22.032 5.498L23.67 5.498L23.67 9.098L25.11 9.098L25.11 10.754L23.67 10.754L23.67 14.588C24.192 14.372 24.696 14.174 25.182 13.958L25.182 15.578C24.678 15.794 24.174 16.01 23.67 16.19L23.67 22.094L22.032 22.094L22.032 16.784Q20.601 17.243 19.116 17.648L18.702 15.992C19.818 15.776 20.934 15.506 22.032 15.182L22.032 10.754ZM12.258 12.14L12.258 10.07L9.468 10.07L9.468 12.14L12.258 12.14ZM25.65 15.506L25.65 13.886L31.464 13.886L31.464 12.86L33.12 12.86L33.12 13.886L35.154 13.886L35.154 15.506L33.12 15.506L33.12 20.24Q33.12 21.968 31.338 21.968L29.178 21.968L28.836 20.348C29.502 20.42 30.15 20.474 30.762 20.474C31.23 20.474 31.464 20.258 31.464 19.844L31.464 15.506L25.65 15.506ZM12.258 13.742L9.468 13.742L9.468 15.74L12.258 15.74L12.258 13.742ZM25.974 16.892L27.306 16.064C28.206 17.072 28.908 17.972 29.394 18.728L28.044 19.682C27.54 18.836 26.838 17.9 25.974 16.892ZM12.258 17.324L9.468 17.324L9.468 19.556L12.258 19.556L12.258 17.324Z" />
    </g>
    <g id="@CSIP_Beizhong" fill="#686868" transform="translate(48 26)">
      <path d="M2.772 9.17C4.104 7.802 5.85 7.136 8.01 7.136C9.954 7.136 11.466 7.712 12.582 8.864C13.554 9.872 14.04 11.132 14.04 12.626C14.04 13.886 13.626 15.056 12.834 16.136C12.024 17.18 11.106 17.702 10.098 17.702Q8.964 17.702 8.802 16.568C8.262 17.342 7.542 17.738 6.678 17.738Q5.49 17.738 4.734 16.928C4.23 16.388 3.996 15.722 3.996 14.912Q3.996 13.022 5.184 11.564C5.958 10.574 6.894 10.088 7.974 10.088C8.766 10.088 9.324 10.502 9.63 11.348L9.882 10.43L11.394 10.43L10.152 14.894C9.972 15.506 9.9 15.902 9.9 16.082C9.9 16.334 10.026 16.46 10.314 16.46C10.836 16.46 11.358 16.118 11.862 15.452C12.456 14.678 12.762 13.742 12.762 12.644C12.762 11.492 12.348 10.502 11.538 9.71Q10.188 8.414 7.92 8.414C6.3 8.414 4.986 8.936 3.996 9.98C3.006 11.006 2.52 12.32 2.52 13.94C2.52 15.722 3.024 17.072 4.068 18.008C5.022 18.854 6.372 19.286 8.136 19.286C9.324 19.286 10.35 19.088 11.196 18.71C11.97 18.332 12.582 17.81 13.05 17.162L14.652 17.162C14.022 18.278 13.104 19.142 11.88 19.718C10.764 20.222 9.504 20.492 8.136 20.492C5.868 20.492 4.086 19.898 2.808 18.71C1.53 17.522 0.9 15.902 0.9 13.886C0.9 12.014 1.512 10.43 2.772 9.17ZM17.712 9.17C18.792 7.802 20.34 7.136 22.392 7.136C23.886 7.136 25.128 7.514 26.1 8.306C27.036 9.062 27.612 10.106 27.81 11.402L25.902 11.402C25.686 10.538 25.272 9.89 24.66 9.476C24.048 9.062 23.292 8.864 22.356 8.864C20.97 8.864 19.926 9.332 19.224 10.286C18.558 11.15 18.234 12.338 18.234 13.832C18.234 15.38 18.558 16.568 19.206 17.414Q20.232 18.764 22.392 18.764C23.328 18.764 24.12 18.53 24.732 18.062Q25.704 17.306 26.082 15.794L27.99 15.794C27.702 17.288 27.036 18.458 25.974 19.304Q24.489 20.492 22.41 20.492C20.304 20.492 18.72 19.808 17.658 18.476C16.722 17.324 16.272 15.776 16.272 13.832C16.272 11.924 16.74 10.376 17.712 9.17ZM34.47 7.136Q32.418 7.136 31.068 8.054C30.114 8.702 29.646 9.584 29.646 10.718C29.646 11.834 30.132 12.698 31.122 13.292C31.518 13.508 32.49 13.85 34.074 14.354C35.496 14.786 36.342 15.074 36.63 15.218C37.44 15.632 37.854 16.19 37.854 16.91Q37.854 17.774 36.99 18.26C36.414 18.584 35.64 18.764 34.668 18.764C33.588 18.764 32.796 18.566 32.274 18.17C31.698 17.738 31.338 17 31.194 15.992L29.25 15.992C29.358 17.612 29.934 18.8 30.996 19.556C31.878 20.168 33.102 20.492 34.668 20.492Q37.098 20.492 38.448 19.52C39.348 18.854 39.798 17.954 39.798 16.802C39.798 15.614 39.24 14.696 38.142 14.03C37.638 13.724 36.504 13.31 34.776 12.77C33.57 12.41 32.832 12.14 32.544 11.978C31.896 11.636 31.59 11.186 31.59 10.61C31.59 9.962 31.86 9.494 32.418 9.206Q33.093 8.828 34.362 8.828C35.334 8.828 36.054 9.008 36.558 9.386C37.062 9.746 37.386 10.358 37.566 11.186L39.51 11.186C39.384 9.782 38.88 8.756 37.98 8.09C37.134 7.442 35.964 7.136 34.47 7.136ZM103.14 7.136L103.14 20.24L105.048 20.24L105.048 15.02C105.048 14.21 105.246 13.544 105.66 13.022C106.056 12.5 106.578 12.248 107.226 12.248C107.946 12.248 108.504 12.464 108.864 12.914C109.188 13.346 109.368 13.958 109.368 14.786L109.368 20.24L111.276 20.24L111.276 14.462C111.276 13.238 111.006 12.302 110.466 11.672C109.89 11.006 109.044 10.682 107.928 10.682C107.334 10.682 106.812 10.79 106.344 11.042C105.822 11.294 105.39 11.708 105.048 12.248L105.048 7.136L103.14 7.136ZM90.576 7.208C90.198 7.208 89.892 7.316 89.64 7.568Q89.262 7.919 89.262 8.486C89.262 8.846 89.388 9.17 89.64 9.422C89.892 9.656 90.198 9.782 90.576 9.782C90.936 9.782 91.26 9.656 91.512 9.422C91.764 9.17 91.908 8.864 91.908 8.486Q91.908 7.919 91.53 7.568C91.278 7.316 90.954 7.208 90.576 7.208ZM41.652 20.24L41.652 7.388L43.596 7.388L43.596 20.24L41.652 20.24ZM46.152 7.388L46.152 20.24L48.114 20.24L48.114 15.236L51.444 15.236C54.522 15.236 56.07 13.922 56.07 11.294C56.07 8.684 54.54 7.388 51.48 7.388L46.152 7.388ZM66.888 7.388L66.888 20.24L72.756 20.24Q74.808 20.24 75.942 19.484C76.824 18.872 77.274 17.936 77.274 16.64C77.274 15.776 77.058 15.074 76.626 14.552C76.194 14.03 75.546 13.688 74.7 13.526C75.348 13.292 75.834 12.932 76.194 12.464Q76.734 11.708 76.734 10.628C76.734 9.638 76.392 8.864 75.708 8.288C74.988 7.676 74.016 7.388 72.756 7.388L66.888 7.388ZM68.85 9.008L72.27 9.008C73.134 9.008 73.782 9.152 74.178 9.458Q74.772 9.89 74.772 10.862Q74.772 11.888 74.178 12.374C73.782 12.68 73.134 12.842 72.234 12.842L68.85 12.842L68.85 9.008ZM48.114 9.062L51.318 9.062Q52.749 9.062 53.424 9.602C53.874 9.926 54.108 10.502 54.108 11.294C54.108 12.086 53.874 12.662 53.442 13.022C52.992 13.382 52.29 13.562 51.318 13.562L48.114 13.562L48.114 9.062ZM79.758 12.104C80.55 11.15 81.648 10.682 83.016 10.682C84.528 10.682 85.698 11.186 86.49 12.23C87.21 13.166 87.588 14.462 87.606 16.118L80.55 16.118C80.622 17.018 80.856 17.72 81.288 18.206C81.72 18.674 82.314 18.926 83.07 18.926C83.736 18.926 84.276 18.764 84.69 18.458C85.014 18.206 85.284 17.792 85.536 17.252L87.444 17.252C87.228 18.116 86.814 18.854 86.166 19.43C85.356 20.132 84.33 20.492 83.088 20.492C81.72 20.492 80.622 20.06 79.83 19.214C78.966 18.314 78.534 17.108 78.534 15.578C78.534 14.192 78.93 13.04 79.758 12.104ZM114.336 12.086C115.182 11.15 116.316 10.682 117.72 10.682C119.124 10.682 120.258 11.15 121.104 12.086C121.932 13.004 122.364 14.174 122.364 15.596C122.364 17 121.95 18.17 121.122 19.07C120.258 20.006 119.124 20.492 117.72 20.492C116.316 20.492 115.182 20.006 114.318 19.07C113.49 18.17 113.076 17 113.076 15.596C113.076 14.174 113.49 13.004 114.336 12.086ZM128.898 10.682C128.322 10.682 127.8 10.79 127.332 11.042C126.864 11.276 126.45 11.618 126.09 12.086L126.09 10.934L124.182 10.934L124.182 20.24L126.09 20.24L126.09 14.642C126.162 13.886 126.432 13.292 126.864 12.86C127.26 12.464 127.746 12.284 128.286 12.284C129.726 12.284 130.464 13.076 130.464 14.66L130.464 20.24L132.372 20.24L132.372 14.498C132.372 11.942 131.202 10.682 128.898 10.682ZM135.36 11.996C136.134 11.114 137.16 10.682 138.42 10.682C139.644 10.682 140.58 11.168 141.264 12.176L141.264 10.934L143.172 10.934L143.172 19.628C143.172 22.58 141.714 24.056 138.834 24.056C137.538 24.056 136.548 23.804 135.864 23.318C135.18 22.814 134.766 22.058 134.586 21.032L136.494 21.032C136.602 21.572 136.818 21.968 137.178 22.202C137.52 22.418 138.078 22.544 138.834 22.544C140.454 22.544 141.264 21.662 141.264 19.916L141.264 18.476C140.58 19.502 139.644 20.024 138.42 20.024C137.16 20.024 136.134 19.592 135.36 18.746C134.568 17.9 134.19 16.784 134.19 15.38C134.19 13.976 134.568 12.86 135.36 11.996ZM89.622 10.934L89.622 20.24L91.53 20.24L91.53 10.934L89.622 10.934ZM93.654 12.5L93.654 10.934L101.322 10.934L101.322 12.176L95.976 18.674L101.61 18.674L101.61 20.24L93.474 20.24L93.474 18.926L98.748 12.5L93.654 12.5ZM8.964 11.852C8.766 11.636 8.532 11.546 8.262 11.546C7.56 11.546 6.948 11.888 6.426 12.59C5.886 13.292 5.634 14.084 5.634 14.984C5.634 15.416 5.724 15.758 5.922 16.01C6.102 16.262 6.408 16.388 6.804 16.388Q7.344 16.388 7.884 15.956C8.28 15.65 8.532 15.272 8.676 14.804L9.036 13.472C9.18 12.968 9.252 12.644 9.252 12.536C9.252 12.248 9.144 12.032 8.964 11.852ZM140.616 13.076C140.148 12.5 139.518 12.23 138.708 12.23C137.898 12.23 137.268 12.5 136.836 13.076C136.368 13.616 136.152 14.39 136.152 15.38C136.152 16.28 136.332 17 136.692 17.522C137.106 18.134 137.772 18.458 138.708 18.458C139.518 18.458 140.148 18.188 140.616 17.648C141.048 17.09 141.282 16.334 141.282 15.38C141.282 14.408 141.048 13.634 140.616 13.076ZM85.608 14.678Q85.338 12.248 83.07 12.248C82.35 12.248 81.792 12.446 81.36 12.878C80.964 13.292 80.694 13.886 80.586 14.678L85.608 14.678ZM119.79 13.292C119.286 12.59 118.602 12.248 117.72 12.248C116.838 12.248 116.154 12.59 115.668 13.292C115.236 13.886 115.038 14.66 115.038 15.596C115.038 16.532 115.236 17.288 115.668 17.882C116.154 18.566 116.838 18.926 117.72 18.926C118.602 18.926 119.286 18.566 119.79 17.882C120.222 17.27 120.438 16.514 120.438 15.596C120.438 14.66 120.222 13.886 119.79 13.292ZM68.85 14.444L72.54 14.444C73.476 14.444 74.178 14.606 74.628 14.948C75.078 15.29 75.312 15.848 75.312 16.604C75.312 17.342 75.006 17.882 74.43 18.224C73.962 18.476 73.314 18.62 72.486 18.62L68.85 18.62L68.85 14.444ZM56.628 22.76L56.628 21.176L65.628 21.176L65.628 22.76L56.628 22.76Z" />
    </g>
    <path d="M0 1L111 1" transform="translate(48 24)" id="Line" fill="none" stroke="#808080" stroke-width="1" />
  </g>
</svg>