<?xml version="1.0" encoding="utf-8"?>
<svg width="641px" height="361px" viewBox="0 0 641 361" version="1.1" xmlns:xlink="http://www.w3.org/1999/xlink" xmlns="http://www.w3.org/2000/svg">
  <desc>Created with Lunacy</desc>
  <g id="Group-2">
    <g id="Group">
      <path d="M49.999 0L590.001 0Q591.228 0 592.454 0.060226Q593.68 0.120452 594.902 0.240759Q596.123 0.361066 597.337 0.541164Q598.551 0.721262 599.755 0.960717Q600.959 1.20017 602.15 1.49841Q603.34 1.79664 604.515 2.15294Q605.689 2.50924 606.845 2.92274Q608.001 3.33624 609.135 3.80595Q610.269 4.27565 611.378 4.80044Q612.488 5.32522 613.57 5.90382Q614.653 6.48241 615.706 7.11343Q616.758 7.74444 617.779 8.42635Q618.799 9.10826 619.785 9.83943Q620.771 10.5706 621.72 11.3492Q622.669 12.1279 623.578 12.9522Q624.488 13.7765 625.356 14.6444Q626.223 15.5123 627.048 16.4217Q627.872 17.3312 628.651 18.28Q629.429 19.2288 630.161 20.2146Q630.892 21.2005 631.574 22.221Q632.256 23.2416 632.887 24.2944Q633.518 25.3472 634.096 26.4296Q634.675 27.5121 635.2 28.6217Q635.724 29.7312 636.194 30.8652Q636.664 31.9992 637.077 33.1548Q637.491 34.3105 637.847 35.4851Q638.203 36.6596 638.502 37.8502Q638.8 39.0409 639.039 40.2447Q639.279 41.4485 639.459 42.6626Q639.639 43.8767 639.759 45.0982Q639.88 46.3197 639.94 47.5457Q640 48.7716 640 49.999L640 310.001Q640 311.228 639.94 312.454Q639.88 313.68 639.759 314.902Q639.639 316.123 639.459 317.337Q639.279 318.551 639.039 319.755Q638.8 320.959 638.502 322.15Q638.203 323.34 637.847 324.515Q637.491 325.689 637.077 326.845Q636.664 328.001 636.194 329.135Q635.724 330.269 635.2 331.378Q634.675 332.488 634.096 333.57Q633.518 334.653 632.887 335.706Q632.256 336.758 631.574 337.779Q630.892 338.799 630.161 339.785Q629.429 340.771 628.651 341.72Q627.872 342.669 627.048 343.578Q626.223 344.488 625.356 345.356Q624.488 346.224 623.578 347.048Q622.669 347.872 621.72 348.651Q620.771 349.429 619.785 350.161Q618.8 350.892 617.779 351.574Q616.758 352.255 615.706 352.887Q614.653 353.518 613.57 354.096Q612.488 354.675 611.378 355.2Q610.269 355.724 609.135 356.194Q608.001 356.664 606.845 357.077Q605.689 357.491 604.515 357.847Q603.34 358.203 602.15 358.502Q600.959 358.8 599.755 359.039Q598.551 359.279 597.337 359.459Q596.123 359.639 594.902 359.759Q593.68 359.88 592.454 359.94Q591.228 360 590.001 360L49.999 360Q48.7716 360 47.5457 359.94Q46.3197 359.88 45.0982 359.759Q43.8767 359.639 42.6626 359.459Q41.4485 359.279 40.2447 359.039Q39.0409 358.8 37.8502 358.502Q36.6596 358.203 35.4851 357.847Q34.3105 357.491 33.1548 357.077Q31.9992 356.664 30.8652 356.194Q29.7312 355.724 28.6217 355.2Q27.5121 354.675 26.4296 354.096Q25.3472 353.518 24.2944 352.887Q23.2416 352.256 22.221 351.574Q21.2005 350.892 20.2146 350.161Q19.2288 349.429 18.28 348.651Q17.3312 347.872 16.4217 347.048Q15.5123 346.224 14.6444 345.356Q13.7765 344.488 12.9522 343.578Q12.1279 342.669 11.3493 341.72Q10.5706 340.771 9.83943 339.785Q9.10826 338.799 8.42635 337.779Q7.74444 336.758 7.11343 335.706Q6.48241 334.653 5.90382 333.57Q5.32522 332.488 4.80044 331.378Q4.27565 330.269 3.80595 329.135Q3.33624 328.001 2.92274 326.845Q2.50924 325.689 2.15294 324.515Q1.79664 323.34 1.49841 322.15Q1.20017 320.959 0.960717 319.755Q0.721262 318.551 0.541164 317.337Q0.361066 316.123 0.240759 314.902Q0.120452 313.68 0.060226 312.454Q0 311.228 0 310.001L0 49.999Q0 48.7716 0.060226 47.5457Q0.120452 46.3197 0.240759 45.0982Q0.361066 43.8767 0.541164 42.6626Q0.721262 41.4485 0.960717 40.2447Q1.20017 39.0409 1.49841 37.8502Q1.79664 36.6596 2.15294 35.4851Q2.50924 34.3105 2.92274 33.1548Q3.33624 31.9992 3.80595 30.8652Q4.27565 29.7312 4.80044 28.6217Q5.32522 27.5121 5.90382 26.4296Q6.48241 25.3472 7.11343 24.2944Q7.74444 23.2416 8.42635 22.221Q9.10826 21.2005 9.83943 20.2146Q10.5706 19.2288 11.3492 18.28Q12.1279 17.3312 12.9522 16.4217Q13.7765 15.5123 14.6444 14.6444Q15.5123 13.7765 16.4217 12.9522Q17.3312 12.1279 18.28 11.3493Q19.2288 10.5706 20.2146 9.83943Q21.2005 9.10826 22.221 8.42635Q23.2416 7.74444 24.2944 7.11343Q25.3472 6.48241 26.4296 5.90382Q27.5121 5.32522 28.6217 4.80044Q29.7312 4.27565 30.8652 3.80595Q31.9992 3.33624 33.1548 2.92274Q34.3105 2.50924 35.4851 2.15294Q36.6596 1.79664 37.8502 1.49841Q39.0409 1.20017 40.2447 0.960717Q41.4485 0.721262 42.6626 0.541164Q43.8767 0.361066 45.0982 0.240759Q46.3197 0.120452 47.5457 0.060226Q48.7716 0 49.999 0Z" id="Rectangle" fill="#D3D3D3" stroke="none" />
      <g id="Picture-icon" transform="translate(175.5 43.10526)">
        <path d="M0 0L289 0L289 273.789L0 273.789L0 0Z" id="Background" fill="none" stroke="none" />
        <path d="M0 0L0 229.983L289 229.983L289 0L0 0ZM277.44 10.9515L11.5603 10.9515L11.5603 219.031L277.44 219.031L277.44 10.9515ZM23.12 21.9033L23.12 146.649C22.962 147.376 22.962 148.146 23.12 148.873L23.12 208.08L265.88 208.08L265.88 181.557C266.038 180.83 266.038 180.06 265.88 179.332L265.88 21.9033L23.12 21.9033ZM254.32 32.8548L34.6801 32.8548L34.6801 135.184L100.066 78.0301C100.924 77.3028 101.985 76.8109 103.137 76.6611C105.079 76.3403 107.043 77.0034 108.375 78.3723L167.801 139.804L192.366 116.532C193.291 115.676 194.511 115.12 195.798 114.992C197.581 114.756 199.387 115.334 200.674 116.532L254.32 167.354L254.32 32.8548ZM202.3 60.2337C192.727 60.2337 184.96 67.5918 184.96 76.6611C184.96 85.7303 192.727 93.0884 202.3 93.0884C211.873 93.0884 219.64 85.7303 219.64 76.6611C219.64 67.5918 211.873 60.2337 202.3 60.2337ZM159.492 147.675L103.679 90.0085L34.6801 150.413L34.6801 197.129L254.32 197.129L254.32 183.097L196.52 128.339L172.858 150.584C172.361 151.354 171.684 151.996 170.871 152.467L154.434 168.21C152.131 170.391 148.429 170.391 146.126 168.21C143.823 166.028 143.823 162.52 146.126 160.338L159.492 147.675Z" transform="translate(0 21.90333)" id="Shape" fill="#5B5B5B" fill-rule="evenodd" stroke="none" />
      </g>
    </g>
    <path d="M575 0L0 297.5C0 297.5 516.26 298.918 530.004 297.5C543.747 296.082 552.79 292.671 564.04 278.671C575.291 264.671 575.004 241.5 575.004 241.5L575 0Z" transform="translate(65 62.5)" id="New-shape" fill="#000000" fill-opacity="0.360784322" style="mix-blend-mode: darken;" stroke="none" />
  </g>
</svg>